<svg xmlns="http://www.w3.org/2000/svg" viewBox="0 0 120 120" role="img" aria-label="Agence L&amp;L">
  <rect width="120" height="120" fill="#EEEAE1"/>
  <circle cx="60" cy="60" r="54" fill="none" stroke="#7E3A22" stroke-width="2.4"/>
  <g transform="translate(-26.4,-24) scale(0.72)" fill="#7E3A22">
    <path d="M101,116 C90,108 80,108 74,116 C71,120 73,125 78,124 C82,123 86,120 92,121 C97,122 101,124 105,127 Z" opacity="0.92"/>
    <path d="M139,116 C150,108 160,108 166,116 C169,120 167,125 162,124 C158,123 154,120 148,121 C143,122 139,124 135,127 Z" opacity="0.92"/>
    <path fill-rule="evenodd" d="M102,127 C90,119 86,105 90,93 C95,77 108,69 120,69 C132,69 145,77 150,93 C154,105 150,119 138,127 C132,131 108,131 102,127 Z M99,101 a7,5 0 1,0 14,0 a7,5 0 1,0 -14,0 Z M127,101 a7,5 0 1,0 14,0 a7,5 0 1,0 -14,0 Z"/>
    <rect x="101.5" y="99.5" width="9" height="3" rx="1.4"/>
    <rect x="129.5" y="99.5" width="9" height="3" rx="1.4"/>
    <path d="M101,124 C87,128 75,138 71,152 C68,162 71,170 79,172 C83,173 87,170 87,165 C82,166 77,162 79,154 C82,144 93,134 105,130 Z"/>
    <path d="M107,127 C99,140 93,154 97,166 C100,174 108,174 110,167 C105,167 102,162 103,154 C104,146 109,137 114,131 Z"/>
    <path d="M120,129 C117,144 116,158 121,170 C124,177 131,176 132,169 C127,168 125,162 125,153 C125,144 127,137 129,131 Z"/>
    <path d="M133,127 C141,140 147,154 143,166 C140,174 132,174 130,167 C135,167 138,162 137,154 C136,146 131,137 126,131 Z"/>
    <path d="M139,124 C153,128 165,138 169,152 C172,162 169,170 161,172 C157,173 153,170 153,165 C158,166 163,162 161,154 C158,144 147,134 135,130 Z"/>
    <circle cx="119" cy="146" r="1.5" fill="#EEEAE1"/>
    <circle cx="120" cy="155" r="1.5" fill="#EEEAE1"/>
    <circle cx="122" cy="163" r="1.4" fill="#EEEAE1"/>
    <circle cx="104" cy="150" r="1.3" fill="#EEEAE1"/>
    <circle cx="136" cy="150" r="1.3" fill="#EEEAE1"/>
  </g>
</svg>
